HIERARCHY
ROOT Hips
{
	OFFSET	0.00	0.00	0.00
	CHANNELS 6 Xposition Yposition Zposition Zrotation Xrotation Yrotation
	JOINT LeftUpLeg
	{
		OFFSET	 0.126116	-0.065224	 0.014019
		CHANNELS 3 Zrotation Xrotation Yrotation
		JOINT LeftLeg
		{
			OFFSET	 0.000000	 0.569914	 0.000000
			CHANNELS 3 Zrotation Xrotation Yrotation
			JOINT LeftFoot
			{
				OFFSET	 0.000000	 0.544423	 0.000000
				CHANNELS 3 Zrotation Xrotation Yrotation
				JOINT LeftToeBase
				{
					OFFSET	 0.000000	 0.207117	 0.000000
					CHANNELS 3 Zrotation Xrotation Yrotation
					End Site
					{
						OFFSET	 0.000000	 0.207117	 0.000000
					}
				}
			}
		}
	}
	JOINT RightUpLeg
	{
		OFFSET	-0.124023	-0.065224	 0.008373
		CHANNELS 3 Zrotation Xrotation Yrotation
		JOINT RightLeg
		{
			OFFSET	 0.000000	 0.570047	 0.000000
			CHANNELS 3 Zrotation Xrotation Yrotation
			JOINT RightFoot
			{
				OFFSET	 0.000000	 0.544354	 0.000000
				CHANNELS 3 Zrotation Xrotation Yrotation
				JOINT RightToeBase
				{
					OFFSET	 0.000000	 0.207540	 0.000000
					CHANNELS 3 Zrotation Xrotation Yrotation
					End Site
					{
						OFFSET	 0.000000	 0.207540	 0.000000
					}
				}
			}
		}
	}
	JOINT Spine
	{
		OFFSET	 0.000184	 0.117403	 0.007763
		CHANNELS 3 Zrotation Xrotation Yrotation
		JOINT Spine1
		{
			OFFSET	 0.000000	 0.137269	 0.000000
			CHANNELS 3 Zrotation Xrotation Yrotation
			JOINT Spine2
			{
				OFFSET	 0.000000	 0.156879	 0.000000
				CHANNELS 3 Zrotation Xrotation Yrotation
				JOINT LeftShoulder
				{
					OFFSET	 0.080501	 0.160143	 0.002496
					CHANNELS 3 Zrotation Xrotation Yrotation
					JOINT LeftArm
					{
						OFFSET	 0.000000	 0.164363	 0.000000
						CHANNELS 3 Zrotation Xrotation Yrotation
						JOINT LeftForeArm
						{
							OFFSET	 0.000000	 0.364576	 0.000000
							CHANNELS 3 Zrotation Xrotation Yrotation
							JOINT LeftHand
							{
								OFFSET	 0.000000	 0.360812	 0.000000
								CHANNELS 3 Zrotation Xrotation Yrotation
								JOINT LeftHandIndex1
								{
									OFFSET	 0.000000	 0.086006	 0.000000
									CHANNELS 3 Zrotation Xrotation Yrotation
									JOINT LeftHandIndex2
									{
										OFFSET	 0.000000	 0.047237	 0.000000
										CHANNELS 3 Zrotation Xrotation Yrotation
										JOINT LeftHandIndex3
										{
											OFFSET	-0.004284	 0.038165	 0.000551
											CHANNELS 3 Zrotation Xrotation Yrotation
											End Site
											{
												OFFSET	-0.004284	 0.038165	 0.000551
											}
										}
									}
								}
							}
						}
					}
				}
				JOINT Neck
				{
					OFFSET	 0.000000	 0.176489	 0.000000
					CHANNELS 3 Zrotation Xrotation Yrotation
					JOINT Head
					{
						OFFSET	 0.000000	 0.077941	 0.001747
						CHANNELS 3 Zrotation Xrotation Yrotation
						End Site
						{
							OFFSET	 0.000000	 0.077941	 0.001747
						}
					}
				}
				JOINT RightShoulder
				{
					OFFSET	-0.080363	 0.159706	-0.000306
					CHANNELS 3 Zrotation Xrotation Yrotation
					JOINT RightArm
					{
						OFFSET	 0.000000	 0.164196	 0.000000
						CHANNELS 3 Zrotation Xrotation Yrotation
						JOINT RightForeArm
						{
							OFFSET	 0.000000	 0.365611	 0.000000
							CHANNELS 3 Zrotation Xrotation Yrotation
							JOINT RightHand
							{
								OFFSET	 0.000000	 0.360648	 0.000000
								CHANNELS 3 Zrotation Xrotation Yrotation
								JOINT RightHandIndex1
								{
									OFFSET	 0.000000	 0.069977	 0.000000
									CHANNELS 3 Zrotation Xrotation Yrotation
									JOINT RightHandIndex2
									{
										OFFSET	 0.000000	 0.052305	 0.000000
										CHANNELS 3 Zrotation Xrotation Yrotation
										JOINT RightHandIndex3
										{
											OFFSET	 0.009002	 0.042196	 0.000782
											CHANNELS 3 Zrotation Xrotation Yrotation
											End Site
											{
												OFFSET	 0.009002	 0.042196	 0.000782
											}
										}
									}
								}
							}
						}
					}
				}
			}
		}
	}
}
MOTION
Frames:    4
Frame Time: 0.03333334
 0.003900	 1.227584	-2.287828	 0.600900	 1.964903	-175.344400	-158.216800	 19.201590	-42.968710	 25.961420	-73.154800	 23.802240	-17.398460	 68.124150	 20.137130	 1.522105	 31.362370	-2.816288	 176.566100	 13.626140	 30.180670	-2.961233	-34.490350	 0.103744	-45.870510	 76.533040	 41.350910	-1.550389	 31.702470	 2.828439	 5.528616	 4.867703	-31.474680	-1.326823	 2.871411	 1.402877	 1.797536	-3.582758	-6.071531	-120.126100	 6.864699	 93.666480	 21.848200	 40.844120	-7.276126	 9.876878	-0.262004	-4.468512	 6.700618	 6.271385	 23.380320	 4.930579	 25.141420	-2.113675	-5.892803	 28.279550	 3.145885	 5.688964	 12.873010	-0.039865	 0.111352	-4.850399	-0.310024	-1.957491	-1.507733	-4.491438	 119.928700	-0.136086	-90.823780	-13.559670	 46.526880	 6.721841	-9.642344	-0.189692	 4.452930	-6.791942	-3.176231	 5.661962	-2.580098	 18.426940	 1.419753	 14.326430	 37.919530	-9.305416	-8.515366	 14.989810	-0.644874
 0.001384	 1.237691	-2.465888	-0.800573	 0.505820	-177.993100	-164.492100	 30.607170	-50.919510	 8.984848	-49.678280	 3.715725	-6.042570	 73.120580	 17.300490	 1.368336	 29.415950	-2.746078	 176.763200	 3.170439	 28.315490	-2.328889	-28.387370	-2.651914	-65.398860	 77.749530	 62.525560	-1.857057	 35.336740	 2.983698	 2.613963	 5.820974	-16.745250	-2.258239	 3.973691	 3.496313	 2.358225	-4.458729	-8.211088	-120.154200	 5.410056	 92.964930	-13.321090	 50.197600	 17.557030	 32.514510	-1.309122	-4.728792	-4.653551	 1.043674	 38.831920	 4.982789	 27.515620	-2.133598	-5.926472	 30.545920	 3.415183	 5.777679	 15.019330	-0.015366	 0.148845	-4.822067	-0.536328	-2.512162	-2.218437	-5.597724	 119.546300	 1.019246	-91.356670	-24.771980	 47.708350	 8.389722	-10.302900	-0.186568	 5.128395	-14.628510	-16.453020	 13.942130	-2.855661	 19.623820	 1.532970	 14.576270	 39.278400	-9.753502	-8.523605	 16.367780	-0.732391
-0.006698	 1.207842	-2.701359	-1.836304	-0.506666	 178.835200	 179.731700	 30.660790	-42.411820	 0.671150	-5.050236	-6.707055	-14.549200	 65.428410	 32.203800	 1.258149	 27.975920	-2.698778	 174.942700	-7.220370	 24.242440	-2.380761	-28.918270	-7.408664	-67.748860	 75.836680	 73.087550	-3.021203	 46.511190	 3.648458	-0.989864	 5.491639	 5.269695	-3.146432	 4.565073	 5.483897	 2.936458	-4.906533	-10.252390	-119.804000	 3.685854	 92.111970	-8.158627	 51.502120	 9.261347	 11.584390	-0.264403	-5.979153	-2.055330	-0.326876	 52.155140	 4.767719	 28.027790	-1.919262	-5.980968	 33.112810	 3.730233	 5.916091	 18.365840	 0.016425	 0.105983	-4.958956	-0.728870	-2.551959	-2.781096	-6.836318	 119.468800	 1.794957	-91.719780	-29.659200	 34.797250	 8.361914	-11.426340	-0.194383	 5.965100	-17.625210	-16.720770	 20.864180	-2.951871	 21.367090	 1.570862	 15.009360	 41.417680	-10.494710	-8.532388	 18.607850	-0.875652
-0.020679	 1.175204	-2.934489	-2.917070	-0.416739	 176.940100	-177.056600	 38.116400	-41.463360	 2.735875	-19.804670	-6.376945	-20.775820	 72.283770	 38.199260	 1.286288	 28.347290	-2.710610	 171.174500	-13.100910	 19.344850	-3.030745	-35.112650	-5.436908	-10.993220	 69.605510	 25.682420	-5.942195	 60.008810	 8.152433	-3.885154	 4.686936	 24.654480	-3.809675	 4.398473	 6.400436	 3.309930	-4.947420	-11.598480	-119.901700	 3.162640	 91.862190	-4.566895	 49.431910	 4.240763	 12.143870	-0.252765	-6.699481	-12.135070	 0.552738	 59.234890	 4.473936	 25.092010	-1.641193	-5.954066	 31.951760	 3.586275	 5.894382	 17.841880	 0.011968	-0.001321	-5.154631	-0.766382	-2.202760	-2.754122	-7.590872	 119.507100	 1.686004	-91.670510	-26.862520	 24.270930	 9.167260	-12.371170	-0.200294	 6.682498	-14.961730	-7.986163	 23.383870	-2.873586	 23.413750	 1.537374	 15.525120	 43.673980	-11.330580	-8.535260	 21.059830	-1.034382
